# xmcd
#
# Track frame offsets: 
#        150
#        10080
#        31997
#        50945
#        64656
#        87330
#        100095
#        123151
#        155616
#        183281
#        196513
#        209991
#        226418
#
# Disc length: 3322 seconds
#
# Revision: 0
# Processed by: cddbd v1.5.2PL0 Copyright (c) Steve Scherf et al.
# Submitted via: ExactAudioCopyFreeDBPlugin 1.0
#
DISCID=ab0cf80d
DTITLE=Garcia Jerry, Grisman David, Rice Tony - The Pizza Tapes #1
DYEAR=1993
DGENRE=Acoustic
TTITLE0=Pizza Preamble
TTITLE1=Man Of Constant Sorrow (run through)
TTITLE2=Man Of Constant Sorrow (instrumental)
TTITLE3=Always Late
TTITLE4=Man Of Constant Sorrow 1
TTITLE5=Constant Patter
TTITLE6=Man Of Constant Sorrow 2
TTITLE7=Louis Collins 1
TTITLE8=Louis Collins 2
TTITLE9=Shady Grove (run through)
TTITLE10=Shady Grove 1 (incomplete)
TTITLE11=Shady Jam
TTITLE12=Shady Grove 2
EXTD=
EXTT0=
EXTT1=
EXTT2=
EXTT3=
EXTT4=
EXTT5=
EXTT6=
EXTT7=
EXTT8=
EXTT9=
EXTT10=
EXTT11=
EXTT12=
PLAYORDER=
